<svg width="24" height="24" viewBox="0 0 24 24" fill="none" xmlns="http://www.w3.org/2000/svg">
<path d="M16.8301 15.6402C17.5001 15.2002 18.3801 15.6802 18.3801 16.4802V17.7702C18.3801 19.0402 17.3901 20.4002 16.2001 20.8002L13.0101 21.8602C12.4501 22.0502 11.5401 22.0502 10.9901 21.8602L7.80012 20.8002C6.60012 20.4002 5.62012 19.0402 5.62012 17.7702V16.4702C5.62012 15.6802 6.50012 15.2002 7.16012 15.6302L9.22012 16.9702C10.0101 17.5002 11.0101 17.7602 12.0101 17.7602C13.0101 17.7602 14.0101 17.5002 14.8001 16.9702L16.8301 15.6402Z" fill="white"/>
<path d="M19.98 6.45859L13.99 2.52859C12.91 1.81859 11.13 1.81859 10.05 2.52859L4.03002 6.45859C2.10002 7.70859 2.10002 10.5386 4.03002 11.7986L5.63002 12.8386L10.05 15.7186C11.13 16.4286 12.91 16.4286 13.99 15.7186L18.38 12.8386L19.75 11.9386V14.9986C19.75 15.4086 20.09 15.7486 20.5 15.7486C20.91 15.7486 21.25 15.4086 21.25 14.9986V10.0786C21.65 8.78859 21.24 7.28859 19.98 6.45859Z" fill="white"/>
</svg>
