<svg width="30" height="30" viewBox="0 0 30 30" fill="none" xmlns="http://www.w3.org/2000/svg">
<path d="M15 18.75C17.0711 18.75 18.75 17.0711 18.75 15C18.75 12.9289 17.0711 11.25 15 11.25C12.9289 11.25 11.25 12.9289 11.25 15C11.25 17.0711 12.9289 18.75 15 18.75Z" stroke="white" stroke-width="1.875" stroke-miterlimit="10" stroke-linecap="round" stroke-linejoin="round"/>
<path d="M2.5 16.1057V13.9057C2.5 12.6057 3.5625 11.5307 4.875 11.5307C7.1375 11.5307 8.0625 9.93066 6.925 7.96816C6.275 6.84316 6.6625 5.38066 7.8 4.73066L9.9625 3.49316C10.95 2.90566 12.225 3.25566 12.8125 4.24316L12.95 4.48066C14.075 6.44316 15.925 6.44316 17.0625 4.48066L17.2 4.24316C17.7875 3.25566 19.0625 2.90566 20.05 3.49316L22.2125 4.73066C23.35 5.38066 23.7375 6.84316 23.0875 7.96816C21.95 9.93066 22.875 11.5307 25.1375 11.5307C26.4375 11.5307 27.5125 12.5932 27.5125 13.9057V16.1057C27.5125 17.4057 26.45 18.4807 25.1375 18.4807C22.875 18.4807 21.95 20.0807 23.0875 22.0432C23.7375 23.1807 23.35 24.6307 22.2125 25.2807L20.05 26.5182C19.0625 27.1057 17.7875 26.7557 17.2 25.7682L17.0625 25.5307C15.9375 23.5682 14.0875 23.5682 12.95 25.5307L12.8125 25.7682C12.225 26.7557 10.95 27.1057 9.9625 26.5182L7.8 25.2807C6.6625 24.6307 6.275 23.1682 6.925 22.0432C8.0625 20.0807 7.1375 18.4807 4.875 18.4807C3.5625 18.4807 2.5 17.4057 2.5 16.1057Z" stroke="white" stroke-width="1.875" stroke-miterlimit="10" stroke-linecap="round" stroke-linejoin="round"/>
</svg>
