<svg width="30" height="30" viewBox="0 0 30 30" fill="none" xmlns="http://www.w3.org/2000/svg">
<path d="M12.5624 3.16407L5.0374 8.07657C2.6249 9.65157 2.6249 13.1766 5.0374 14.7516L12.5624 19.6641C13.9124 20.5516 16.1374 20.5516 17.4874 19.6641L24.9749 14.7516C27.3749 13.1766 27.3749 9.66407 24.9749 8.08907L17.4874 3.17657C16.1374 2.27657 13.9124 2.27657 12.5624 3.16407Z" stroke="white" stroke-width="1.875" stroke-linecap="round" stroke-linejoin="round"/>
<path d="M7.0374 16.3516L7.0249 22.2141C7.0249 23.8016 8.2499 25.5016 9.7499 26.0016L13.7374 27.3266C14.4249 27.5516 15.5624 27.5516 16.2624 27.3266L20.2499 26.0016C21.7499 25.5016 22.9749 23.8016 22.9749 22.2141V16.4141" stroke="white" stroke-width="1.875" stroke-linecap="round" stroke-linejoin="round"/>
<path d="M26.75 18.75V11.25" stroke="white" stroke-width="1.875" stroke-linecap="round" stroke-linejoin="round"/>
</svg>
